<?xml version="1.0" standalone="no"?><!DOCTYPE svg PUBLIC "-//W3C//DTD SVG 1.1//EN" "http://www.w3.org/Graphics/SVG/1.1/DTD/svg11.dtd"><svg t="1573784838968" class="icon" viewBox="0 0 1024 1024" version="1.1" xmlns="http://www.w3.org/2000/svg" p-id="1302" xmlns:xlink="http://www.w3.org/1999/xlink" width="200" height="200"><defs><style type="text/css"></style></defs><path d="M278.15 192.43h129.47a80 80 0 0 1 80 80v209.88H278.15a80 80 0 0 1-80-80V272.43a80 80 0 0 1 80-80zM752.31 482.31H542.84V272.43a80 80 0 0 1 80-80h129.47a80 80 0 0 1 80 80v129.88a80 80 0 0 1-80 80zM752.31 828.53H622.84a80 80 0 0 1-80-80V538.65h209.47a80 80 0 0 1 80 80v129.88a80 80 0 0 1-80 80zM278.15 538.64h209.47v209.88a80 80 0 0 1-80 80H278.15a80 80 0 0 1-80-80V618.64a80 80 0 0 1 80-80z" fill="#FA4033" p-id="1303"></path></svg>